<svg xmlns="http://www.w3.org/2000/svg" viewBox="0 0 512 512">
  <defs>
    <linearGradient id="bg" x1="0%" y1="0%" x2="100%" y2="100%">
      <stop offset="0%" style="stop-color:#667eea"/>
      <stop offset="100%" style="stop-color:#764ba2"/>
    </linearGradient>
  </defs>
  
  <!-- 背景圆角矩形 -->
  <rect x="32" y="32" width="448" height="448" rx="64" ry="64" fill="url(#bg)"/>
  
  <!-- 日历顶部装饰条 -->
  <rect x="32" y="32" width="448" height="100" rx="64" ry="64" fill="#5a67d8"/>
  <rect x="32" y="80" width="448" height="52" fill="#5a67d8"/>
  
  <!-- 日历挂钩 -->
  <rect x="140" y="16" width="32" height="80" rx="8" fill="#fff"/>
  <rect x="340" y="16" width="32" height="80" rx="8" fill="#fff"/>
  
  <!-- 日历主体白色区域 -->
  <rect x="64" y="140" width="384" height="308" rx="16" fill="#fff"/>
  
  <!-- 日期格子 - 简化显示 -->
  <g fill="#e2e8f0">
    <rect x="88" y="170" width="56" height="56" rx="8"/>
    <rect x="160" y="170" width="56" height="56" rx="8"/>
    <rect x="232" y="170" width="56" height="56" rx="8"/>
    <rect x="304" y="170" width="56" height="56" rx="8"/>
    <rect x="376" y="170" width="56" height="56" rx="8"/>
    
    <rect x="88" y="242" width="56" height="56" rx="8"/>
    <rect x="160" y="242" width="56" height="56" rx="8"/>
    <rect x="304" y="242" width="56" height="56" rx="8"/>
    <rect x="376" y="242" width="56" height="56" rx="8"/>
    
    <rect x="88" y="314" width="56" height="56" rx="8"/>
    <rect x="160" y="314" width="56" height="56" rx="8"/>
    <rect x="232" y="314" width="56" height="56" rx="8"/>
    <rect x="304" y="314" width="56" height="56" rx="8"/>
    <rect x="376" y="314" width="56" height="56" rx="8"/>
    
    <rect x="88" y="386" width="56" height="56" rx="8"/>
    <rect x="160" y="386" width="56" height="56" rx="8"/>
  </g>
  
  <!-- 高亮当前日期 -->
  <rect x="232" y="242" width="56" height="56" rx="8" fill="#667eea"/>
  
  <!-- 勾选标记 - 表示待办完成 -->
  <path d="M248 270 L262 284 L292 254" stroke="#fff" stroke-width="8" stroke-linecap="round" stroke-linejoin="round" fill="none"/>
</svg>
